# xmcd
#
# Track frame offsets: 
#        225
#        18849
#        30942
#        45891
#        59985
#        73678
#        91292
#        111603
#        128918
#        138757
#        155827
#        170739
#        186069
#        195377
#
# Disc length: 2725 seconds
#
# Revision: 0
# Processed by: cddbd v1.5.2PL0 Copyright (c) Steve Scherf et al.
# Submitted via: ExactAudioCopy v0.99pb4
#
DISCID=c10aa20e
DTITLE=Various Artist - Ich steh´ auf Country Music CD 2
DYEAR=1900
DGENRE=Country - Deutsch
TTITLE0=Sammy´s Saloon - Die härteste Enttäuschung
TTITLE1=Cissy - Heute Nacht mein Freund
TTITLE2=Tex Harper - Hallo Freunde ich bin pleite
TTITLE3=Tommy Steiner - Country Lady
TTITLE4=Michael Dee - Blaue Augen, blondes Haar
TTITLE5=Sasja Velt - Ich geh´ gern mal einen Schritt zu weit
TTITLE6=Peter Orloff - Die Strasse
TTITLE7=Camillo Felgen - An Daddy persönlich
TTITLE8=Peter Held - Oh Susanna, du Rose der Prärie
TTITLE9=Gudrun Lange und Kactus - Wanderer im Wunderland
TTITLE10=Gus Backus - Hey Cowboy
TTITLE11=New Mavericks - Auf eigene Faust
TTITLE12=Bill Ramsey - Der Tramp
TTITLE13=Mary Roos - 7000 Rinder
EXTD=
EXTT0=
EXTT1=
EXTT2=
EXTT3=
EXTT4=
EXTT5=
EXTT6=
EXTT7=
EXTT8=
EXTT9=
EXTT10=
EXTT11=
EXTT12=
EXTT13=
PLAYORDER=
